<svg width="188" height="50" viewBox="0 0 188 50" fill="none" xmlns="http://www.w3.org/2000/svg">
<path d="M90.8137 8.0928L90.8137 0.255859L91.8415 0.255859L91.8415 7.19348L96.9805 7.19348L96.9805 8.0928L90.8137 8.0928Z" fill="black"/>
<path d="M100.193 8.09334L100.193 0.12793L101.221 0.12793L101.221 7.96487L100.193 7.96487L100.193 8.09334Z" fill="black"/>
<path d="M108.8 8.0928L108.158 8.0928L104.432 0.255859L105.46 0.255859L108.543 6.55111L111.627 0.255859L112.655 0.255859L108.8 8.0928Z" fill="black"/>
<path d="M115.867 8.0928L115.867 0.255859L122.033 0.255859L122.033 1.15519L116.894 1.15519L116.894 3.46772L119.978 3.46772L119.978 4.36705L116.894 4.36705L116.894 7.19348L122.419 7.19348L122.419 8.0928L115.867 8.0928Z" fill="black"/>
<path d="M132.311 6.93653L132.825 6.03721C133.339 6.42263 133.981 6.80806 134.495 7.06501C135.137 7.32195 135.651 7.45042 136.294 7.45042C137.064 7.45042 137.578 7.32196 138.092 6.93653C138.606 6.67959 138.735 6.29416 138.735 5.78026C138.735 5.39484 138.606 5.13788 138.221 4.88094C137.835 4.62399 137.45 4.49552 136.936 4.49552C136.807 4.49552 136.55 4.49552 136.294 4.49552C135.009 4.36704 134.109 4.23857 133.596 3.98162C133.21 3.85314 132.953 3.5962 132.825 3.33925C132.696 3.0823 132.568 2.69688 132.568 2.43993C132.568 1.79756 132.825 1.28365 133.467 0.898231C133.981 0.512808 134.752 0.255859 135.651 0.255859C136.294 0.255859 136.936 0.384338 137.578 0.641286C138.221 0.898235 138.863 1.15518 139.377 1.5406L138.863 2.31145C138.349 1.92602 137.835 1.66908 137.321 1.41213C136.807 1.15518 136.294 1.15519 135.651 1.15519C135.009 1.15519 134.623 1.28365 134.238 1.5406C133.853 1.79755 133.724 2.05451 133.724 2.43993C133.724 2.5684 133.724 2.69687 133.853 2.82535C133.853 2.95382 133.981 3.0823 134.109 3.0823C134.495 3.33925 135.137 3.46772 136.165 3.59619C136.679 3.59619 137.064 3.5962 137.321 3.72467C138.092 3.85315 138.735 4.1101 139.248 4.49552C139.762 4.88094 139.891 5.39484 139.891 6.03721C139.891 6.80805 139.634 7.32195 138.991 7.83585C138.349 8.34975 137.578 8.6067 136.55 8.6067C135.78 8.60669 135.009 8.47823 134.366 8.22128C133.596 7.70738 132.953 7.32196 132.311 6.93653Z" fill="black"/>
<path d="M147.342 8.22236C146.186 8.22236 145.158 7.83694 144.387 7.06609C143.617 6.29525 143.231 5.26745 143.231 4.11118C143.231 2.95491 143.617 1.92712 144.387 1.15627C145.158 0.385425 146.186 -2.30247e-07 147.342 -1.79705e-07C148.499 -1.29163e-07 149.526 0.385425 150.297 1.15627C151.068 1.92712 151.454 2.95491 151.454 4.11118C151.454 5.26745 151.068 6.29525 150.297 7.06609C149.526 7.83694 148.499 8.22236 147.342 8.22236ZM147.342 7.32304C148.242 7.32304 149.013 7.06609 149.526 6.42372C150.04 5.78135 150.426 5.0105 150.426 4.11118C150.426 3.21186 150.169 2.44102 149.526 1.79864C149.013 1.15627 148.242 0.899317 147.342 0.899317C146.443 0.899317 145.672 1.15627 145.158 1.79864C144.516 2.44102 144.259 3.21186 144.259 4.11118C144.259 5.0105 144.516 5.78135 145.158 6.42372C145.801 7.06609 146.443 7.32304 147.342 7.32304Z" fill="black"/>
<path d="M156.079 0.255859L156.079 5.39484C156.079 6.16568 156.207 6.80806 156.592 7.06501C156.849 7.32195 157.492 7.45042 158.391 7.45042C159.29 7.45042 159.933 7.32196 160.19 7.06501C160.447 6.80806 160.704 6.29416 160.704 5.39484L160.704 0.255859L161.731 0.255859L161.731 5.65179C161.731 6.67959 161.475 7.32196 160.961 7.70738C160.447 8.0928 159.676 8.34975 158.52 8.34975C157.363 8.34975 156.592 8.0928 156.079 7.70738C155.565 7.32195 155.308 6.55111 155.308 5.65179L155.308 0.255859L156.079 0.255859Z" fill="black"/>
<path d="M165.971 8.0928L165.971 0.255859L166.485 0.255859L171.624 6.16568L171.624 0.255859L172.652 0.255859L172.652 8.0928L172.138 8.0928L166.999 2.18298L166.999 8.0928L165.971 8.0928Z" fill="black"/>
<path d="M180.36 0.255859C181.645 0.255859 182.545 0.641284 183.315 1.41213C184.086 2.18298 184.472 3.08229 184.472 4.23856C184.472 5.39483 184.086 6.42263 183.315 7.06501C182.545 7.83585 181.517 8.0928 180.36 8.0928L177.02 8.0928L177.02 0.255859L180.36 0.255859ZM180.36 1.15519L177.919 1.15519L177.919 7.19348L180.36 7.19348C181.388 7.19348 182.031 6.93653 182.673 6.42263C183.187 5.90874 183.444 5.13788 183.444 4.23856C183.444 3.33924 183.187 2.5684 182.545 2.0545C182.159 1.41213 181.388 1.15519 180.36 1.15519Z" fill="black"/>
<path d="M2.27014 22.5852L0.599976 22.5852L0.599974 49.4363L2.27014 49.4363L2.27014 22.5852Z" fill="black"/>
<path d="M6.6632 22.6104L4.47913 22.6104L4.47912 49.4615L6.6632 49.4615L6.6632 22.6104Z" fill="black"/>
<path d="M14.0379 22.6628L8.38507 22.6628L8.38507 49.514L14.0379 49.514L14.0379 22.6628Z" fill="black"/>
<path d="M20.5709 22.6436L16.2028 22.6436L16.2028 49.4947L20.5709 49.4947L20.5709 22.6436Z" fill="black"/>
<path d="M26.2938 22.5852L24.1098 22.5852L24.1098 49.4363L26.2938 49.4363L26.2938 22.5852Z" fill="black"/>
<path d="M33.6931 22.6611L29.8389 22.6611L29.8389 49.5123L33.6931 49.5123L33.6931 22.6611Z" fill="black"/>
<path d="M39.9769 22.6479L36.1227 22.6479L36.1226 49.4991L39.9769 49.4991L39.9769 22.6479Z" fill="black"/>
<path d="M48.0561 22.6353L45.6151 22.6353L45.6151 49.4864L48.0561 49.4864L48.0561 22.6353Z" fill="black"/>
<path d="M54.1467 22.5576L51.7057 22.5576L51.7057 49.4088L54.1467 49.4088L54.1467 22.5576Z" fill="black"/>
<path d="M61.5854 22.5449L57.4742 22.5449L57.4742 49.3961L61.5854 49.3961L61.5854 22.5449Z" fill="black"/>
<path d="M69.6303 22.626L63.592 22.626L63.592 49.4771L69.6303 49.4771L69.6303 22.626Z" fill="black"/>
<path d="M75.5501 22.6353L71.0535 22.6353L71.0535 49.4864L75.5501 49.4864L75.5501 22.6353Z" fill="black"/>
<path d="M81.6306 22.55L79.1896 22.55L79.1896 49.4012L81.6306 49.4012L81.6306 22.55Z" fill="black"/>
<path d="M88.8881 22.6128L84.9054 22.6128L84.9054 49.464L88.8881 49.464L88.8881 22.6128Z" fill="black"/>
<path d="M93.3258 22.5525L91.0132 22.5525L91.0132 49.4037L93.3258 49.4037L93.3258 22.5525Z" fill="black"/>
<path d="M97.1932 22.5652L94.8806 22.5652L94.8806 49.4163L97.1932 49.4163L97.1932 22.5652Z" fill="black"/>
<path d="M100.867 22.6436L98.5543 22.6436L98.5543 49.4947L100.867 49.4947L100.867 22.6436Z" fill="black"/>
<path d="M108.794 22.6028L106.481 22.6028L106.481 49.4539L108.793 49.4539L108.794 22.6028Z" fill="black"/>
<path d="M114.787 22.5601L112.475 22.5601L112.475 49.4112L114.787 49.4112L114.787 22.5601Z" fill="black"/>
<path d="M132.116 22.5449L122.224 22.5449L122.224 49.3961L132.116 49.3961L132.116 22.5449Z" fill="black"/>
<path d="M138.06 22.5776L136.133 22.5776L136.133 49.4288L138.06 49.4288L138.06 22.5776Z" fill="black"/>
<path d="M141.927 22.5911L139.999 22.5911L139.999 49.4422L141.927 49.4422L141.927 22.5911Z" fill="black"/>
<path d="M149.854 22.5525L147.927 22.5525L147.927 49.4036L149.854 49.4036L149.854 22.5525Z" fill="black"/>
<path d="M159.387 22.5776L154.12 22.5776L154.12 49.4288L159.387 49.4288L159.387 22.5776Z" fill="black"/>
<path d="M165.518 22.5425L163.077 22.5425L163.077 49.3936L165.518 49.3936L165.518 22.5425Z" fill="black"/>
<path d="M169.579 22.6204L167.138 22.6204L167.138 49.4715L169.579 49.4715L169.579 22.6204Z" fill="black"/>
<path d="M173.736 22.5383L171.295 22.5383L171.295 49.3895L173.736 49.3895L173.736 22.5383Z" fill="black"/>
<path d="M187.334 22.7769L184.892 22.7769L184.892 49.628L187.334 49.628L187.334 22.7769Z" fill="black"/>
<path d="M183.612 22.7783L181.171 22.7783L181.171 49.6295L183.612 49.6295L183.612 22.7783Z" fill="black"/>
</svg>
