<svg width="600" height="235" viewBox="0 0 600 235" fill="none" xmlns="http://www.w3.org/2000/svg">
<g clip-path="url(#clip0)">
<path d="M346.524 0L300.357 88.7303L254.367 0H192.335V3.95155L275.758 167.402H324.956L408.378 3.95155V0.179616L346.524 0Z" fill="white"/>
<path d="M178.788 38.7971V0H68.0925V167.402H178.788V128.605H121.925V102.74H177.896V63.9433H121.925V38.7971H178.788Z" fill="white"/>
<path d="M532.62 38.7971V0H421.925V167.402H532.62V128.605H475.758V102.74H531.729V63.9433H475.758V38.7971H532.62Z" fill="white"/>
<path d="M54.0138 0H0.181396V167.402H54.0138V0Z" fill="white"/>
<path d="M600.001 0H546.168V167.402H600.001V0Z" fill="white"/>
<path d="M3.92157 226.496C4.63458 229.549 6.59537 231.166 10.3387 231.166C14.082 231.166 15.6863 229.37 15.6863 227.035C15.6863 224.52 14.4385 223.083 9.44741 222.005C3.20856 220.568 1.24777 218.233 1.24777 214.641C1.24777 210.69 4.09982 207.456 9.98217 207.456C16.221 207.456 18.8948 211.049 19.0731 214.461H14.9733C14.6168 212.306 13.1907 210.51 9.62567 210.51C6.59537 210.51 4.99109 211.767 4.99109 214.282C4.99109 216.617 6.41711 217.515 10.8734 218.593C18.1818 220.389 19.6078 223.263 19.6078 226.675C19.6078 230.986 16.3993 234.219 9.98217 234.219C3.56506 234.219 0.534759 230.627 0 226.675H3.92157V226.496Z" fill="#EA0F0F"/>
<path d="M165.062 220.748C165.062 227.933 160.962 234.219 152.941 234.219C145.276 234.219 140.998 228.292 140.998 220.928C140.998 213.563 145.454 207.636 153.298 207.636C160.428 207.456 165.062 213.025 165.062 220.748ZM144.92 220.748C144.92 226.316 147.593 230.986 152.941 230.986C158.645 230.986 160.962 226.137 160.962 220.748C160.962 215.36 158.467 210.69 152.941 210.69C147.415 210.69 144.92 215.36 144.92 220.748Z" fill="#EA0F0F"/>
<path d="M291.8 207.816V223.442C291.8 229.37 295.009 230.986 298.217 230.986C301.961 230.986 304.456 229.19 304.456 223.442V207.816H308.378V223.263C308.378 231.705 303.743 234.219 298.217 234.219C292.692 234.219 288.057 231.705 288.057 223.622V207.995H291.8V207.816Z" fill="#EA0F0F"/>
<path d="M432.798 233.86V207.995H437.79C441.355 214.102 449.019 226.496 450.445 229.37C450.267 226.137 450.267 222.005 450.267 217.695V207.995H453.832V233.86H449.198C445.989 228.292 437.79 214.821 436.364 211.947C436.542 214.821 436.542 219.311 436.542 223.981V233.86H432.798Z" fill="#EA0F0F"/>
<path d="M578.431 207.816H587.879C595.187 207.816 600 212.845 600 220.568C600 228.292 595.187 233.86 587.701 233.86H578.431V207.816ZM582.175 230.627H587.344C593.226 230.627 595.9 226.316 595.9 220.748C595.9 215.719 593.405 211.228 587.344 211.228H582.175V230.627Z" fill="#EA0F0F"/>
</g>
<defs>
<clipPath id="clip0">
<rect width="600" height="234.219" fill="white"/>
</clipPath>
</defs>
</svg>
