<svg width="507" height="41" viewBox="0 0 507 41" fill="none" xmlns="http://www.w3.org/2000/svg">
<path d="M4.52571 0.0710451L0 0.0710449L-1.77627e-06 40.7073L4.52571 40.7073L4.52571 0.0710451Z" fill="black"/>
<path d="M16.4339 0.109864L10.5156 0.109863L10.5156 40.7461L16.4339 40.7461L16.4339 0.109864Z" fill="black"/>
<path d="M36.4204 0.188477L21.1025 0.188477L21.1025 40.8248L36.4204 40.8248L36.4204 0.188477Z" fill="black"/>
<path d="M54.1246 0.159913L42.2881 0.159912L42.2881 40.7962L54.1246 40.7962L54.1246 0.159913Z" fill="black"/>
<path d="M69.6331 0.0705569L63.7148 0.0705566L63.7148 40.7068L69.6331 40.7068L69.6331 0.0705569Z" fill="black"/>
<path d="M89.6735 0.185791L79.2295 0.185791L79.2295 40.8221L89.6735 40.8221L89.6735 0.185791Z" fill="black"/>
<path d="M106.701 0.166016L96.2568 0.166016L96.2568 40.8023L106.701 40.8023L106.701 0.166016Z" fill="black"/>
<path d="M128.599 0.148194L121.984 0.148193L121.984 40.7845L128.599 40.7845L128.599 0.148194Z" fill="black"/>
<path d="M145.103 0.029053L138.488 0.0290527L138.488 40.6654L145.103 40.6654L145.103 0.029053Z" fill="black"/>
<path d="M165.257 0.00854541L154.117 0.00854492L154.117 40.6448L165.257 40.6448L165.257 0.00854541Z" fill="black"/>
<path d="M187.058 0.134278L170.695 0.134277L170.695 40.7706L187.058 40.7706L187.058 0.134278Z" fill="black"/>
<path d="M203.102 0.148194L190.917 0.148193L190.917 40.7845L203.102 40.7845L203.102 0.148194Z" fill="black"/>
<path d="M219.579 0.0166019L212.965 0.0166016L212.965 40.6529L219.579 40.6529L219.579 0.0166019Z" fill="black"/>
<path d="M239.234 0.112793L228.442 0.112793L228.442 40.7491L239.234 40.7491L239.234 0.112793Z" fill="black"/>
<path d="M251.265 0.0205081L244.999 0.0205078L244.999 40.6568L251.265 40.6568L251.265 0.0205081Z" fill="black"/>
<path d="M261.75 0.0410159L255.483 0.0410156L255.483 40.6773L261.75 40.6773L261.75 0.0410159Z" fill="black"/>
<path d="M271.707 0.158936L265.44 0.158936L265.44 40.7952L271.707 40.7952L271.707 0.158936Z" fill="black"/>
<path d="M293.183 0.0971682L286.917 0.097168L286.917 40.7335L293.183 40.7335L293.183 0.0971682Z" fill="black"/>
<path d="M309.418 0.0322268L303.151 0.0322266L303.151 40.6685L309.418 40.6685L309.418 0.0322268Z" fill="black"/>
<path d="M356.38 0.00879023L329.574 0.00878906L329.574 40.6451L356.38 40.6451L356.38 0.00879023Z" fill="black"/>
<path d="M372.492 0.0588381L367.271 0.0588379L367.271 40.6951L372.492 40.6951L372.492 0.0588381Z" fill="black"/>
<path d="M382.969 0.0793459L377.747 0.0793457L377.747 40.7156L382.969 40.7156L382.969 0.0793459Z" fill="black"/>
<path d="M404.446 0.020508L399.224 0.0205078L399.224 40.6568L404.446 40.6568L404.446 0.020508Z" fill="black"/>
<path d="M430.281 0.0588385L416.008 0.0588379L416.008 40.6951L430.281 40.6951L430.281 0.0588385Z" fill="black"/>
<path d="M446.888 0.00537138L440.273 0.00537109L440.273 40.6416L446.888 40.6416L446.888 0.00537138Z" fill="black"/>
<path d="M457.892 0.125L451.277 0.125L451.277 40.7613L457.892 40.7613L457.892 0.125Z" fill="black"/>
<path d="M469.161 -0.000243851L462.547 -0.000244141L462.547 40.6361L469.161 40.6361L469.161 -0.000243851Z" fill="black"/>
<path d="M506.005 0.36084L499.391 0.36084L499.391 40.9971L506.005 40.9971L506.005 0.36084Z" fill="black"/>
<path d="M495.919 0.364014L489.305 0.364014L489.305 41.0003L495.919 41.0003L495.919 0.364014Z" fill="black"/>
</svg>
