<svg width="375" height="13" viewBox="0 0 375 13" fill="none" xmlns="http://www.w3.org/2000/svg">
<path d="M3.354 0.020508L0 0.0205078L-5.27309e-07 12.0839L3.354 12.0839L3.354 0.020508Z" fill="black"/>
<path d="M12.1797 0.0322268L7.7937 0.0322266L7.7937 12.0957L12.1797 12.0957L12.1797 0.0322268Z" fill="black"/>
<path d="M26.9961 0.0566411L15.644 0.0566406L15.644 12.1201L26.9961 12.1201L26.9961 0.0566411Z" fill="black"/>
<path d="M40.1158 0.0478519L31.3438 0.0478516L31.3437 12.1113L40.1158 12.1113L40.1158 0.0478519Z" fill="black"/>
<path d="M51.6055 0.0214846L47.2195 0.0214844L47.2195 12.0849L51.6055 12.0849L51.6055 0.0214846Z" fill="black"/>
<path d="M66.4588 0.0546878L58.7188 0.0546875L58.7187 12.1181L66.4588 12.1181L66.4588 0.0546878Z" fill="black"/>
<path d="M79.076 0.049805L71.3359 0.0498047L71.3359 12.1132L79.076 12.1132L79.076 0.049805Z" fill="black"/>
<path d="M95.3086 0.0439455L90.4066 0.0439453L90.4066 12.1074L95.3086 12.1074L95.3086 0.0439455Z" fill="black"/>
<path d="M107.539 0.00878928L102.637 0.00878906L102.637 12.0722L107.539 12.0722L107.539 0.00878928Z" fill="black"/>
<path d="M122.475 0.00390661L114.219 0.00390625L114.219 12.0673L122.475 12.0673L122.475 0.00390661Z" fill="black"/>
<path d="M138.63 0.039063L126.504 0.0390625L126.504 12.1025L138.63 12.1025L138.63 0.039063Z" fill="black"/>
<path d="M150.522 0.0449223L141.492 0.0449219L141.492 12.1084L150.522 12.1084L150.522 0.0449223Z" fill="black"/>
<path d="M162.738 0.00585959L157.836 0.00585938L157.836 12.0693L162.738 12.0693L162.738 0.00585959Z" fill="black"/>
<path d="M177.299 0.03418L169.301 0.0341797L169.301 12.0976L177.299 12.0976L177.299 0.03418Z" fill="black"/>
<path d="M186.219 0.00585958L181.575 0.00585938L181.575 12.0693L186.219 12.0693L186.219 0.00585958Z" fill="black"/>
<path d="M193.988 0.0126955L189.344 0.0126953L189.344 12.0761L193.988 12.0761L193.988 0.0126955Z" fill="black"/>
<path d="M201.363 0.0468752L196.719 0.046875L196.719 12.1103L201.363 12.1103L201.363 0.0468752Z" fill="black"/>
<path d="M217.281 0.0292971L212.637 0.0292969L212.637 12.0927L217.281 12.0927L217.281 0.0292971Z" fill="black"/>
<path d="M229.312 0.00976583L224.668 0.00976562L224.668 12.0732L229.312 12.0732L229.312 0.00976583Z" fill="black"/>
<path d="M264.116 0.00390712L244.25 0.00390625L244.25 12.0673L264.116 12.0673L264.116 0.00390712Z" fill="black"/>
<path d="M276.058 0.0185549L272.188 0.0185547L272.187 12.082L276.058 12.082L276.058 0.0185549Z" fill="black"/>
<path d="M283.819 0.0234377L279.949 0.0234375L279.949 12.0869L283.819 12.0869L283.819 0.0234377Z" fill="black"/>
<path d="M299.733 0.00683611L295.863 0.00683594L295.863 12.0703L299.733 12.0703L299.733 0.00683611Z" fill="black"/>
<path d="M318.883 0.016602L308.305 0.0166016L308.305 12.08L318.883 12.08L318.883 0.016602Z" fill="black"/>
<path d="M331.195 0.00195334L326.293 0.00195312L326.293 12.0654L331.195 12.0654L331.195 0.00195334Z" fill="black"/>
<path d="M339.352 0.0371096L334.45 0.0371094L334.45 12.1005L339.352 12.1005L339.352 0.0371096Z" fill="black"/>
<path d="M347.699 2.14274e-07L342.797 0L342.797 12.0634L347.699 12.0634L347.699 2.14274e-07Z" fill="black"/>
<path d="M375.004 0.107422L370.102 0.107422L370.102 12.1709L375.004 12.1709L375.004 0.107422Z" fill="black"/>
<path d="M367.531 0.107422L362.629 0.107422L362.629 12.1709L367.531 12.1709L367.531 0.107422Z" fill="black"/>
</svg>
