<svg width="331" height="330" viewBox="0 0 331 330" fill="none" xmlns="http://www.w3.org/2000/svg">
<g clip-path="url(#clip0)">
<path d="M13.6268 174.654L0.219757 175.093V173.338L12.0883 172.899L11.8685 164.122H13.407L13.6268 174.654Z" fill="#EA0F0F"/>
<path d="M13.407 158.637L0 157.979V156.224L13.407 156.882V158.637Z" fill="#EA0F0F"/>
<path d="M14.7257 144.375L14.5059 145.472L0.439518 150.08L0.659305 148.324L12.0883 144.594L2.19782 138.012L2.41761 136.037L14.7257 144.375Z" fill="#EA0F0F"/>
<path d="M16.7038 132.965L3.73633 129.674L6.37378 119.362L7.91229 119.801L5.71442 128.358L9.4508 129.455L10.7695 124.189L12.308 124.628L10.9893 129.674L15.6049 130.771L17.8027 121.556L19.3412 121.995L16.7038 132.965Z" fill="#EA0F0F"/>
<path d="M22.858 105.977L21.9788 104.661C23.0777 104.222 23.9569 103.564 24.836 102.686C25.7152 102.028 26.1548 101.15 26.5943 100.273C27.0339 99.1755 27.2537 98.0784 27.2537 97.2007C27.0339 96.3231 26.5943 95.6648 25.935 95.226C25.2756 95.0066 24.836 95.0066 24.1767 95.226C23.5173 95.4454 23.0777 96.1037 22.4184 96.9813C22.1986 97.2007 22.1986 97.4202 21.9788 97.859C20.8799 99.8337 20.0007 100.931 19.3414 101.589C18.9018 102.028 18.2424 102.247 17.5831 102.467C16.9237 102.467 16.4841 102.467 15.8248 102.247C14.9456 101.808 14.2862 100.931 14.0665 99.8337C13.8467 98.7367 14.0665 97.4202 14.7258 96.1037C15.1654 95.0066 15.8248 94.1289 16.7039 93.2513C17.5831 92.3736 18.4622 91.7154 19.5611 91.0571L20.4403 92.593C19.5611 93.0319 18.682 93.6901 18.0226 94.3484C17.3633 95.0066 16.7039 95.8843 16.2643 96.7619C15.8248 97.6396 15.605 98.5172 15.8248 99.1755C16.0445 99.8337 16.2643 100.492 16.7039 100.711C16.9237 100.711 17.1435 100.931 17.3633 100.931C17.5831 100.931 17.8028 100.931 18.0226 100.711C18.682 100.492 19.3414 99.3949 20.2205 97.859C20.6601 97.2007 20.8799 96.5425 21.0997 96.1037C21.759 95.0066 22.6382 94.1289 23.7371 93.6901C24.836 93.2513 25.7152 93.2513 26.5943 93.6901C27.6933 94.1289 28.3526 95.226 28.7922 96.5425C29.012 97.859 28.7922 99.3949 28.1329 100.931C27.4735 102.247 26.8141 103.125 25.935 104.003C25.0558 104.661 24.1767 105.539 22.858 105.977Z" fill="#EA0F0F"/>
<path d="M36.7045 84.6941C35.6056 86.4495 34.2869 87.5465 32.3088 87.766C30.5505 88.2048 28.7922 87.766 27.0339 86.6689C25.2756 85.5718 24.1766 84.0359 23.7371 82.2806C23.2975 80.5253 23.7371 78.7699 24.6162 77.0146C25.7152 75.2593 27.0339 74.1622 29.012 73.9428C30.7703 73.504 32.5286 73.9428 34.2869 75.0399C36.0452 76.137 37.1441 77.6729 37.5837 79.4282C38.0233 81.1835 37.8035 83.1582 36.7045 84.6941ZM35.3858 84.0359C36.265 82.7194 36.4847 81.4029 36.0452 80.0864C35.6056 78.7699 34.9462 77.6729 33.4077 76.7952C32.089 75.9176 30.7703 75.6981 29.2318 75.9175C27.6932 76.137 26.8141 77.0146 25.9349 78.3311C25.0558 79.6476 24.836 80.9641 25.2756 82.2806C25.7152 83.5971 26.3745 84.6941 27.913 85.5718C29.2318 86.4495 30.5505 86.6689 32.089 86.4495C33.6275 86.0106 34.7264 85.133 35.3858 84.0359Z" fill="#EA0F0F"/>
<path d="M34.2869 64.2886L41.1003 69.774C42.1992 70.6516 43.0784 71.0905 43.7377 70.871C44.3971 70.6516 45.2762 70.2128 46.1554 68.8963C47.0345 67.7992 47.4741 66.7022 47.4741 66.0439C47.4741 65.3857 46.8148 64.508 45.7158 63.6304L38.9024 58.145L40.0013 56.8285L47.0345 62.5333C48.3533 63.6304 49.0126 64.7274 49.0126 65.8245C49.0126 66.9216 48.3533 68.2381 47.2543 69.774C46.1554 71.5293 45.0565 72.4069 43.9575 72.6264C42.8586 72.8458 41.7596 72.407 40.4409 71.3099L33.4077 65.6051L34.2869 64.2886Z" fill="#EA0F0F"/>
<path d="M55.3865 60.1197L45.9356 50.4654L46.595 49.8072L59.7822 50.9042L52.749 43.883L53.848 42.7859L63.2988 52.4401L62.6395 53.0984L49.4522 52.0013L56.4854 59.242L55.3865 60.1197Z" fill="#EA0F0F"/>
<path d="M65.2769 33.5705C67.0352 32.254 68.7935 31.8152 70.5518 32.0346C72.3101 32.254 73.8486 33.1317 74.9475 34.6676C76.2663 36.2035 76.7058 37.9588 76.2663 39.7141C76.0465 41.4694 74.9475 43.0053 73.1892 44.3218L68.5737 47.8325L60.4416 37.0811L65.2769 33.5705ZM66.3758 34.6676L63.079 37.3005L69.2331 45.4189L72.5299 43.0053C73.8486 41.9083 74.508 40.8112 74.7278 39.4947C74.9475 38.1782 74.508 36.8617 73.6288 35.5452C72.7497 34.2287 71.6507 33.5705 70.1122 33.3511C68.5737 33.1317 67.4748 33.7899 66.3758 34.6676Z" fill="#EA0F0F"/>
<path d="M103.52 26.3298L98.4648 14.0425L100.003 13.3843L104.619 24.355L112.751 21.0638L113.41 22.3803L103.52 26.3298Z" fill="#EA0F0F"/>
<path d="M118.465 20.625L114.29 7.89891L115.828 7.46008L120.004 20.1861L118.465 20.625Z" fill="#EA0F0F"/>
<path d="M132.312 16.8948L131.213 17.1143L121.982 5.48526L123.74 5.04643L131.213 14.4813L133.851 2.85228L135.609 2.41345L132.312 16.8948Z" fill="#EA0F0F"/>
<path d="M143.741 14.7007L142.203 1.31643L152.752 0.21936L152.972 1.75526L144.181 2.63292L144.4 6.58239L149.675 5.92415L149.895 7.46005L144.62 8.1183L145.06 12.9454L154.511 11.8484L154.73 13.3843L143.741 14.7007Z" fill="#EA0F0F"/>
<path d="M171.215 11.1902L172.313 9.87368C173.193 10.7513 174.072 11.4096 175.171 11.8484C176.27 12.2872 177.149 12.5067 178.248 12.7261C179.566 12.7261 180.446 12.7261 181.325 12.2872C181.984 11.629 182.424 10.9707 182.424 10.0931C182.424 9.43485 182.204 8.7766 181.764 8.33777C181.325 7.89894 180.446 7.46011 179.566 7.46011C179.347 7.46011 178.907 7.46011 178.467 7.2407C176.27 7.02128 174.731 6.58245 174.072 6.14362C173.412 5.70479 172.973 5.26596 172.753 4.82713C172.533 4.3883 172.313 3.73006 172.313 3.29123C172.313 2.19415 172.973 1.31649 174.072 0.65825C175.171 5.1856e-06 176.27 -0.21941 177.808 5.20051e-06C178.907 5.20051e-06 180.006 0.438835 181.105 0.877665C182.204 1.31649 183.083 1.97474 183.962 2.8524L182.863 4.16889C181.984 3.51064 181.325 2.8524 180.446 2.41357C179.566 1.97474 178.687 1.75532 177.588 1.75532C176.489 1.75532 175.83 1.75532 174.951 2.19415C174.292 2.63298 173.852 3.07181 173.852 3.51064C173.852 3.73006 173.852 3.94947 173.852 4.16889C173.852 4.3883 174.072 4.60772 174.292 4.82713C174.731 5.26596 176.05 5.70479 177.808 5.92421C178.687 6.14362 179.347 6.14362 179.786 6.14362C181.105 6.36304 182.204 7.02128 182.863 7.67953C183.523 8.55719 183.962 9.43484 183.742 10.3125C183.742 11.629 183.083 12.5067 181.764 13.1649C180.446 13.8231 179.127 14.262 177.369 14.0426C176.05 14.0426 174.731 13.6037 173.632 13.1649C173.193 12.7261 172.094 12.0678 171.215 11.1902Z" fill="#EA0F0F"/>
<path d="M195.831 16.6756C193.853 16.2368 192.314 15.3591 191.435 13.8232C190.556 12.2873 190.116 10.532 190.556 8.55726C190.995 6.58252 191.874 5.04662 193.413 3.94954C194.951 2.85247 196.71 2.63305 198.688 3.07188C200.666 3.51071 202.204 4.38837 203.084 5.92428C204.183 7.46018 204.402 9.2155 203.963 11.1902C203.523 13.165 202.644 14.7009 201.106 15.7979C199.567 16.895 197.809 17.1144 195.831 16.6756ZM196.27 15.1397C197.809 15.3591 199.127 15.1397 200.226 14.4815C201.325 13.6038 202.204 12.5067 202.424 10.9708C202.644 9.43492 202.424 8.11843 201.765 6.80194C201.106 5.70486 199.787 4.8272 198.468 4.60779C196.93 4.38837 195.611 4.60779 194.512 5.48545C193.413 6.36311 192.534 7.46018 192.314 8.99609C192.094 10.532 192.314 11.8485 192.973 13.165C193.633 14.0426 194.732 14.9203 196.27 15.1397Z" fill="#EA0F0F"/>
<path d="M214.293 7.24064L211.655 15.359C211.216 16.6755 211.216 17.5531 211.436 18.2114C211.875 18.8696 212.754 19.3085 214.073 19.9667C215.612 20.4055 216.491 20.625 217.15 20.1861C217.809 19.9667 218.249 19.089 218.689 17.7726L221.546 9.65421L223.084 10.093L220.227 18.6502C219.787 20.1861 218.908 21.2832 217.809 21.5026C216.71 21.9414 215.392 21.722 213.414 21.2832C211.436 20.8444 210.337 19.9667 209.677 18.8696C209.018 17.992 209.018 16.6755 209.677 15.1396L212.754 6.5824L214.293 7.24064Z" fill="#EA0F0F"/>
<path d="M225.502 25.4521L231.216 13.3843L232.096 13.8231L235.612 26.5492L240.008 17.5532L241.546 18.2114L235.832 30.2792L234.953 29.8404L231.436 17.1143L227.04 26.1103L225.502 25.4521Z" fill="#EA0F0F"/>
<path d="M254.074 25.4521C255.833 26.5492 256.932 28.0851 257.371 29.8404C257.811 31.5957 257.371 33.351 256.492 34.8869C255.393 36.6423 254.074 37.5199 252.316 37.9588C250.558 38.3976 248.799 37.9588 247.041 36.6423L242.206 33.5705L249.459 22.1609L254.074 25.4521ZM253.195 26.7686L249.679 24.5745L244.184 33.351L247.701 35.5452C249.019 36.4229 250.338 36.6423 251.657 36.4229C252.975 36.2034 254.074 35.3258 254.954 34.0093C255.833 32.6928 256.052 31.3763 255.833 30.0598C255.613 28.7433 254.514 27.6463 253.195 26.7686Z" fill="#EA0F0F"/>
<path d="M275.174 59.9003L285.064 50.9043L286.163 52.2208L277.372 60.1197L283.306 66.4828L282.207 67.5798L275.174 59.9003Z" fill="#EA0F0F"/>
<path d="M285.504 71.9681L296.274 63.8497L297.373 65.1662L286.603 73.2846L285.504 71.9681Z" fill="#EA0F0F"/>
<path d="M293.856 83.5971L293.197 82.7194L301.109 70.2128L301.988 71.7487L295.834 81.8418L307.703 80.3059L308.801 81.8418L293.856 83.5971Z" fill="#EA0F0F"/>
<path d="M299.79 93.6901L311.878 87.7659L316.494 97.2007L315.175 97.859L311.219 89.96L307.703 91.7153L310.12 96.5425L308.801 97.2007L306.384 92.3736L301.988 94.5677L306.164 102.906L304.845 103.564L299.79 93.6901Z" fill="#EA0F0F"/>
<path d="M312.538 118.265L314.296 118.923C313.857 120.02 313.637 121.117 313.417 122.214C313.417 123.311 313.417 124.408 313.637 125.286C313.857 126.383 314.516 127.48 315.175 127.919C315.835 128.358 316.714 128.797 317.373 128.577C318.033 128.358 318.472 127.919 318.692 127.261C318.912 126.602 318.912 125.725 318.912 124.847C318.912 124.628 318.912 124.189 318.692 123.75C318.252 121.556 318.033 120.02 318.252 119.142C318.472 118.484 318.692 117.826 318.912 117.387C319.351 116.948 319.791 116.729 320.23 116.509C321.329 116.29 322.208 116.509 323.088 117.168C323.967 117.826 324.626 118.923 325.066 120.459C325.285 121.556 325.505 122.653 325.505 123.75C325.505 124.847 325.286 125.944 324.846 127.261L323.307 126.602C323.747 125.725 323.967 124.628 323.967 123.75C323.967 122.872 323.967 121.775 323.747 120.898C323.527 120.02 323.088 119.142 322.428 118.703C321.769 118.265 321.329 118.045 320.67 118.045C320.45 118.045 320.23 118.265 320.011 118.265C319.791 118.484 319.791 118.703 319.571 118.923C319.351 119.581 319.351 120.678 319.791 122.653C320.011 123.531 320.011 124.189 320.23 124.628C320.45 125.944 320.23 127.041 319.791 128.138C319.351 129.235 318.472 129.674 317.593 129.894C316.274 130.113 315.175 129.894 314.076 129.235C312.977 128.358 312.318 127.041 311.878 125.505C311.439 124.189 311.439 122.872 311.439 121.775C311.659 120.678 311.878 119.362 312.538 118.265Z" fill="#EA0F0F"/>
<path d="M315.615 143.278C315.395 141.303 315.835 139.548 316.934 138.012C318.033 136.476 319.571 135.598 321.549 135.379C323.527 135.16 325.286 135.598 326.824 136.696C328.363 137.793 329.242 139.329 329.461 141.303C329.681 143.278 329.242 145.033 328.143 146.569C327.044 148.105 325.505 148.983 323.527 149.202C321.549 149.422 319.791 148.983 318.252 147.886C316.934 146.789 316.054 145.253 315.615 143.278ZM317.153 143.059C317.373 144.594 318.033 145.692 319.131 146.569C320.23 147.447 321.549 147.666 323.307 147.447C324.846 147.227 326.165 146.569 327.044 145.472C327.923 144.375 328.143 143.059 328.143 141.523C327.923 139.987 327.264 138.89 326.165 138.012C325.066 137.134 323.527 136.915 321.989 137.134C320.45 137.354 319.131 138.012 318.252 139.109C317.373 140.206 316.934 141.523 317.153 143.059Z" fill="#EA0F0F"/>
<path d="M330.78 157.32L321.989 157.54C320.67 157.54 319.571 157.759 319.131 158.417C318.692 159.076 318.472 159.953 318.472 161.489C318.472 163.025 318.692 164.122 319.351 164.561C320.011 165 320.67 165.219 322.209 165.219L331 165V166.755L321.769 166.975C320.011 166.975 318.912 166.536 318.252 165.878C317.593 165 317.153 163.683 317.153 161.709C317.153 159.734 317.373 158.417 318.033 157.54C318.692 156.662 320.011 156.223 321.549 156.223L330.78 156.004V157.32Z" fill="#EA0F0F"/>
<path d="M317.373 173.996L330.78 175.313V176.19L320.011 183.87L329.901 184.747L329.681 186.503L316.274 185.186V184.309L327.044 176.629L317.153 175.751L317.373 173.996Z" fill="#EA0F0F"/>
<path d="M327.044 200.984C326.604 202.959 325.505 204.495 324.187 205.592C322.648 206.689 320.89 206.908 318.912 206.469C316.934 206.031 315.395 205.153 314.516 203.617C313.637 202.081 313.417 200.326 313.857 198.132L315.175 192.427L328.363 195.279L327.044 200.984ZM325.505 200.545L326.384 196.596L316.274 194.402L315.395 198.351C314.955 199.887 315.175 201.423 315.835 202.52C316.494 203.617 317.593 204.275 319.131 204.714C320.67 205.153 321.989 204.934 323.088 204.056C324.187 203.178 325.286 202.081 325.505 200.545Z" fill="#EA0F0F"/>
<path d="M304.845 225.997L316.934 231.702L316.274 233.238L305.505 228.191L301.768 236.09L300.45 235.432L304.845 225.997Z" fill="#EA0F0F"/>
<path d="M297.812 240.259L309.461 247.061L308.582 248.597L296.933 241.795L297.812 240.259Z" fill="#EA0F0F"/>
<path d="M289.9 252.327L290.559 251.449L305.285 253.863L304.186 255.399L292.317 253.424L298.252 263.737L297.153 265.273L289.9 252.327Z" fill="#EA0F0F"/>
<path d="M283.086 261.543L293.197 270.319L286.163 278.218L285.064 277.121L290.999 270.539L288.141 267.906L284.625 271.855L283.526 270.758L287.042 266.809L283.306 263.517L277.152 270.539L276.053 269.442L283.086 261.543Z" fill="#EA0F0F"/>
<path d="M265.064 282.606L265.283 284.362C264.185 284.362 262.866 284.581 261.987 284.801C260.888 285.02 260.009 285.678 259.129 286.117C258.25 286.775 257.591 287.653 257.151 288.531C256.932 289.408 256.932 290.286 257.371 290.944C257.811 291.383 258.25 291.822 259.129 291.822C259.789 291.822 260.668 291.602 261.327 290.944C261.547 290.725 261.767 290.725 262.206 290.286C263.965 288.969 265.283 288.311 266.163 288.092C266.822 287.872 267.481 287.872 267.921 288.092C268.36 288.311 269.02 288.531 269.24 288.969C269.899 289.847 270.119 290.725 269.679 292.041C269.24 293.138 268.58 294.235 267.262 295.113C266.382 295.771 265.283 296.429 264.404 296.649C263.305 297.088 262.206 297.307 260.888 297.307V295.552C261.987 295.552 262.866 295.332 263.965 295.113C264.844 294.894 265.723 294.455 266.602 293.797C267.481 293.138 267.921 292.48 268.141 291.822C268.36 291.164 268.36 290.505 267.921 290.066C267.701 289.847 267.701 289.847 267.481 289.628C267.262 289.628 267.042 289.408 266.822 289.408C266.163 289.408 265.064 289.847 263.525 290.944C262.866 291.383 262.206 291.822 261.987 292.041C260.888 292.699 259.789 293.138 258.69 292.919C257.591 292.919 256.712 292.48 256.052 291.602C255.173 290.505 255.173 289.408 255.393 288.092C255.833 286.775 256.712 285.678 258.03 284.581C259.129 283.703 260.228 283.265 261.327 282.826C262.426 282.387 263.745 282.606 265.064 282.606Z" fill="#EA0F0F"/>
<path d="M243.085 295.332C244.843 294.235 246.602 294.016 248.36 294.455C250.118 294.894 251.657 295.991 252.536 297.746C253.635 299.501 253.855 301.257 253.415 303.012C252.975 304.767 251.876 306.303 250.118 307.181C248.36 308.278 246.602 308.497 244.843 308.059C243.085 307.62 241.546 306.523 240.667 304.767C239.568 303.012 239.349 301.257 239.788 299.501C240.228 297.746 241.327 296.43 243.085 295.332ZM243.964 296.649C242.645 297.527 241.766 298.404 241.546 299.94C241.327 301.257 241.546 302.793 242.206 304.109C243.085 305.426 244.184 306.303 245.503 306.742C246.821 307.181 248.14 306.961 249.459 306.084C250.778 305.206 251.657 304.329 251.876 302.793C252.096 301.476 251.876 299.94 251.217 298.624C250.558 297.307 249.239 296.43 247.92 295.991C246.602 295.552 245.063 295.991 243.964 296.649Z" fill="#EA0F0F"/>
<path d="M235.832 314.641L232.315 306.742C231.656 305.425 231.216 304.767 230.557 304.548C229.898 304.328 228.799 304.548 227.48 305.206C226.161 305.864 225.282 306.523 225.062 307.181C224.843 307.839 224.843 308.717 225.502 310.033L229.019 317.932L227.48 318.59L223.744 310.253C223.084 308.717 223.084 307.4 223.524 306.523C223.963 305.425 225.062 304.548 227.04 303.89C229.019 303.231 230.337 302.792 231.436 303.231C232.535 303.451 233.414 304.548 234.074 305.864L237.81 314.202L235.832 314.641Z" fill="#EA0F0F"/>
<path d="M215.392 308.717L219.348 321.443L218.469 321.662L207.26 314.641L210.117 324.295L208.578 324.734L204.622 312.008L205.501 311.789L216.71 318.81L213.853 309.156L215.392 308.717Z" fill="#EA0F0F"/>
<path d="M194.292 327.806C192.314 328.245 190.336 327.806 189.017 326.928C187.699 326.051 186.6 324.515 186.38 322.54C185.94 320.565 186.38 318.81 187.479 317.493C188.578 316.177 190.116 315.08 192.314 314.86L198.029 313.983L200.226 327.148L194.292 327.806ZM193.853 326.27L197.809 325.612L196.05 315.519L192.094 316.177C190.556 316.396 189.237 317.055 188.578 318.152C187.699 319.249 187.479 320.565 187.918 322.101C188.138 323.637 188.798 324.734 189.896 325.612C190.995 326.489 192.314 326.709 193.853 326.27Z" fill="#EA0F0F"/>
<path d="M155.39 316.616L154.071 330L152.313 329.781L153.412 317.932L144.62 317.055L144.84 315.519L155.39 316.616Z" fill="#EA0F0F"/>
<path d="M139.565 314.86L137.147 328.025L135.389 327.806L137.807 314.641L139.565 314.86Z" fill="#EA0F0F"/>
<path d="M125.499 311.569L126.598 311.789L129.455 326.489L127.697 326.05L125.499 314.421L117.806 323.417L116.048 322.979L125.499 311.569Z" fill="#EA0F0F"/>
<path d="M114.289 308.278L109.454 320.785L99.5637 316.835L100.223 315.299L108.575 318.59L110.114 314.86L105.058 312.886L105.498 311.569L110.553 313.544L112.311 308.936L103.52 305.426L104.179 303.89L114.289 308.278Z" fill="#EA0F0F"/>
<path d="M88.5744 298.624L87.0359 299.282C86.5963 298.185 86.1567 297.088 85.4974 296.21C84.838 295.333 84.1786 294.674 83.2995 294.016C82.2006 293.358 81.3214 293.138 80.2225 293.138C79.3433 293.138 78.684 293.577 78.2444 294.236C77.8048 294.894 77.8048 295.333 78.0246 295.991C78.2444 296.649 78.684 297.307 79.5631 297.966C79.7829 298.185 80.0027 298.404 80.4423 298.624C82.2006 299.94 83.2995 301.037 83.7391 301.696C84.1786 302.354 84.3984 302.793 84.3984 303.451C84.3984 304.109 84.1786 304.548 83.9589 304.987C83.2995 305.864 82.4203 306.303 81.3214 306.523C80.2225 306.742 78.9037 306.303 77.585 305.426C76.7059 304.767 75.8267 304.109 75.1674 303.232C74.508 302.354 73.8486 301.257 73.4091 300.16L74.9476 299.501C75.3871 300.599 75.8267 301.476 76.2663 302.134C76.9257 303.012 77.585 303.451 78.4642 304.109C79.3433 304.548 80.2225 304.987 80.8818 304.987C81.5412 304.987 82.2006 304.767 82.4203 304.329C82.6401 304.109 82.6401 303.89 82.6401 303.67C82.6401 303.451 82.6401 303.232 82.4203 303.012C82.2006 302.354 81.3214 301.476 79.7829 300.379C79.1235 299.94 78.684 299.501 78.2444 299.282C77.1454 298.404 76.4861 297.527 76.2663 296.43C76.0465 295.333 76.0465 294.455 76.7059 293.577C77.3652 292.48 78.4642 292.041 79.7829 291.822C81.1016 291.603 82.6401 292.041 83.9589 293.138C85.0578 293.797 85.9369 294.674 86.8161 295.552C87.4755 296.43 88.1348 297.307 88.5744 298.624Z" fill="#EA0F0F"/>
<path d="M69.0133 282.168C70.5518 283.484 71.4309 285.02 71.6507 286.775C71.8705 288.531 71.2112 290.286 69.8924 291.822C68.5737 293.358 67.0352 294.235 65.0571 294.455C63.2988 294.674 61.5405 294.016 60.002 292.919C58.4635 291.602 57.5843 290.067 57.3645 288.311C57.1448 286.556 57.8041 284.801 59.1228 283.265C60.4416 281.729 61.9801 280.851 63.9582 280.632C65.9363 280.412 67.4748 280.851 69.0133 282.168ZM68.1341 283.484C67.0352 282.606 65.7165 282.168 64.178 282.387C62.8592 282.606 61.5405 283.265 60.4416 284.362C59.3426 285.678 58.9031 286.995 59.1228 288.311C59.1228 289.628 59.7822 290.944 61.1009 291.822C62.1999 292.7 63.5186 293.138 65.0571 292.919C66.3758 292.7 67.6946 292.041 68.7935 290.944C69.8924 289.628 70.332 288.311 70.1122 286.995C69.8924 285.678 69.2331 284.362 68.1341 283.484Z" fill="#EA0F0F"/>
<path d="M48.3532 282.168L54.7271 276.243C55.826 275.366 56.2656 274.488 56.2656 273.83C56.2656 273.172 55.6062 272.294 54.7271 271.197C53.6281 270.1 52.749 269.441 52.0896 269.441C51.4302 269.441 50.5511 269.88 49.4522 270.758L43.0783 276.682L41.9794 275.366L48.573 269.003C49.6719 267.906 50.9907 267.247 52.0896 267.467C53.1885 267.686 54.5073 268.344 55.826 269.88C57.1447 271.416 57.8041 272.513 58.0239 273.61C58.2437 274.707 57.5843 275.805 56.2656 276.902L49.6719 283.265L48.3532 282.168Z" fill="#EA0F0F"/>
<path d="M47.0345 260.665L36.2649 268.783L35.8254 268.125L38.6826 255.18L30.7702 261.104L29.6713 259.787L40.4409 251.669L40.8805 252.327L38.0232 265.273L45.9356 259.348L47.0345 260.665Z" fill="#EA0F0F"/>
<path d="M21.759 247.281C20.66 245.525 20.4403 243.77 20.8798 242.015C21.3194 240.259 22.4183 238.943 24.1766 237.846C25.9349 236.749 27.6932 236.529 29.2318 237.188C30.9901 237.626 32.3088 238.943 33.4077 240.698L36.265 245.745L24.6162 252.327L21.759 247.281ZM23.2975 246.622L25.2756 250.133L34.2869 245.086L32.3088 241.576C31.4296 240.04 30.3307 239.162 29.2318 238.943C28.1328 238.723 26.5943 238.723 25.2756 239.601C23.9569 240.479 23.0777 241.356 22.6381 242.673C22.1986 243.77 22.4183 245.086 23.2975 246.622Z" fill="#EA0F0F"/>
</g>
<defs>
<clipPath id="clip0">
<rect width="331" height="330" fill="white"/>
</clipPath>
</defs>
</svg>
