<svg width="171" height="171" viewBox="0 0 171 171" fill="none" xmlns="http://www.w3.org/2000/svg">
<circle cx="85.4999" cy="85.5001" r="85.5" fill="#EA0F0F"/>
<path d="M107.263 65.9806C112.51 65.9806 116.763 57.474 116.763 46.9806C116.763 36.4872 112.51 27.9806 107.263 27.9806C102.016 27.9806 97.7631 36.4872 97.7631 46.9806C97.7631 57.474 102.016 65.9806 107.263 65.9806Z" fill="white"/>
<path d="M62.9314 65.9814C68.1781 65.9814 72.4314 57.4748 72.4314 46.9814C72.4314 36.488 68.1781 27.9814 62.9314 27.9814C57.6847 27.9814 53.4314 36.488 53.4314 46.9814C53.4314 57.4748 57.6847 65.9814 62.9314 65.9814Z" fill="white"/>
<path d="M38.9937 132.628C43.2145 133.574 46.9663 132.628 47.4353 130.736C47.9043 129.317 46.4974 127.425 44.1525 126.005C51.1873 108.502 67.1326 97.149 85.4229 97.149C103.244 97.149 119.19 108.502 126.693 125.532C123.879 126.951 122.472 128.844 122.941 130.263C123.41 132.628 127.162 133.574 131.383 132.155C135.604 131.209 138.418 128.371 137.949 126.478C137.48 125.059 135.604 124.113 132.79 124.113C124.817 103.772 106.527 90.9993 85.8919 90.9993C65.2567 90.9993 46.9664 103.772 38.9937 124.113C36.1798 124.113 33.8348 125.059 33.3659 126.478C31.9589 128.844 34.7729 131.682 38.9937 132.628Z" fill="white"/>
</svg>
