<svg width="630" height="695" viewBox="0 0 630 695" fill="none" xmlns="http://www.w3.org/2000/svg">
<path d="M330 683.62H504.135L617.272 600.277V382" stroke="white" stroke-width="2" stroke-miterlimit="10"/>
<path d="M607.709 693.58C611.736 693.58 615 684.067 615 672.332C615 660.598 611.736 651.085 607.709 651.085C603.682 651.085 600.417 660.598 600.417 672.332C600.417 684.067 603.682 693.58 607.709 693.58Z" stroke="white" stroke-width="2" stroke-miterlimit="10"/>
<path d="M607.71 679.625C619.445 679.625 628.957 676.36 628.957 672.333C628.957 668.306 619.445 665.042 607.71 665.042C595.975 665.042 586.462 668.306 586.462 672.333C586.462 676.36 595.975 679.625 607.71 679.625Z" stroke="white" stroke-width="2" stroke-miterlimit="10"/>
<path d="M622.479 687.863C625.327 685.016 620.909 675.981 612.611 667.683C604.314 659.386 595.279 654.968 592.431 657.815C589.584 660.663 594.002 669.697 602.299 677.995C610.597 686.293 619.632 690.711 622.479 687.863Z" stroke="white" stroke-width="2" stroke-miterlimit="10"/>
<path d="M612.611 677.994C620.909 669.697 625.327 660.662 622.479 657.814C619.632 654.967 610.597 659.385 602.299 667.683C594.002 675.98 589.584 685.015 592.431 687.862C595.279 690.71 604.314 686.292 612.611 677.994Z" stroke="white" stroke-width="2" stroke-miterlimit="10"/>
<path d="M1 161V64H217" stroke="white" stroke-width="2"/>
<path d="M18.3018 36.5311C8.7464 36.5311 1.00016 28.7848 1.00016 19.2294C1.00016 9.67398 8.7464 1.92773 18.3018 1.92773C27.8573 1.92773 35.6035 9.67398 35.6035 19.2294C35.6035 28.7848 27.8573 36.5311 18.3018 36.5311Z" stroke="white" stroke-width="2" stroke-miterlimit="10"/>
</svg>
