<svg width="641" height="23" viewBox="0 0 641 23" fill="none" xmlns="http://www.w3.org/2000/svg">
<path d="M183.112 0C179.604 0 176.095 0 172.586 0L159.429 22.8066H169.955L183.112 0Z" fill="white"/>
<path d="M222.144 0C218.636 0 215.346 0 211.838 0L198.68 22.8066H208.987L222.144 0Z" fill="white"/>
<path d="M201.532 0C198.681 0 196.049 0 193.198 0L180.041 22.8066H188.374L201.532 0Z" fill="white"/>
<path d="M263.153 0C259.645 0 256.355 0 252.846 0L239.689 22.8066H249.996L263.153 0Z" fill="white"/>
<path d="M282.014 0C279.163 0 276.312 0 273.462 0L260.304 22.8066H268.856L282.014 0Z" fill="white"/>
<path d="M321.925 0C318.855 0 315.785 0 312.715 0L299.557 22.8066H308.767L321.925 0Z" fill="white"/>
<path d="M302.627 0C299.118 0 295.829 0 292.32 0L279.162 22.8066H289.469L302.627 0Z" fill="white"/>
<path d="M242.76 0C239.251 0 235.961 0 232.453 0L219.295 22.8066H229.602L242.76 0Z" fill="white"/>
<path d="M0 22.8066H9.21042L22.3681 0C19.0787 0 16.0085 0 13.1577 0L0 22.8066Z" fill="white"/>
<path d="M82.016 0C78.9459 0 75.8758 0 72.8057 0L59.6479 22.8066H68.8583L82.016 0Z" fill="white"/>
<path d="M62.4984 0C58.9897 0 55.4809 0 52.1915 0L39.0338 22.8066H49.3407L62.4984 0Z" fill="white"/>
<path d="M41.8866 0C38.5971 0 35.527 0 32.6761 0L19.5184 22.8066H28.7289L41.8866 0Z" fill="white"/>
<path d="M101.532 0C98.4624 0 95.3923 0 92.3221 0L79.1644 22.8066H88.3748L101.532 0Z" fill="white"/>
<path d="M141.446 0C138.595 0 135.525 0 132.674 0L119.516 22.8066H128.288L141.446 0Z" fill="white"/>
<path d="M162.278 0C158.769 0 155.261 0 151.752 0L138.594 22.8066H149.12L162.278 0Z" fill="white"/>
<path d="M122.367 0C118.858 0 115.349 0 111.841 0L98.6829 22.8066H109.209L122.367 0Z" fill="white"/>
<path d="M342.539 0C339.03 0 335.741 0 332.232 0L319.074 22.8066H329.381L342.539 0Z" fill="white"/>
<path d="M561.394 0C558.324 0 555.035 0 551.745 0L538.588 22.8066H548.237L561.394 0Z" fill="white"/>
<path d="M581.351 0C578.281 0 574.992 0 571.703 0L558.545 22.8066H568.194L581.351 0Z" fill="white"/>
<path d="M601.527 0C598.457 0 595.167 0 591.878 0L578.72 22.8066H588.369L601.527 0Z" fill="white"/>
<path d="M541.221 0C537.931 0 534.861 0 531.572 0L518.414 22.8066H528.063L541.221 0Z" fill="white"/>
<path d="M521.264 0C517.974 0 514.904 0 511.615 0L498.457 22.8066H508.106L521.264 0Z" fill="white"/>
<path d="M621.482 0C618.631 0 615.342 0 611.833 0L598.675 22.8066H608.324L621.482 0Z" fill="white"/>
<path d="M641 0C638.15 0 634.86 0 631.352 0L618.194 22.8066H627.843L641 0Z" fill="white"/>
<path d="M361.838 0C358.768 0 355.917 0 352.847 0L339.69 22.8066H348.681L361.838 0Z" fill="white"/>
<path d="M402.187 0C398.678 0 394.95 0 391.442 0L378.284 22.8066H389.029L402.187 0Z" fill="white"/>
<path d="M381.134 0C378.064 0 375.214 0 372.143 0L358.986 22.8066H367.977L381.134 0Z" fill="white"/>
<path d="M501.309 0C498.019 0 494.949 0 491.66 0L478.502 22.8066H488.151L501.309 0Z" fill="white"/>
<path d="M421.484 0C418.414 0 415.563 0 412.493 0L399.336 22.8066H408.327L421.484 0Z" fill="white"/>
<path d="M481.133 0C478.062 0 475.211 0 472.141 0L458.984 22.8066H467.975L481.133 0Z" fill="white"/>
<path d="M461.835 0C458.765 0 455.914 0 452.844 0L439.687 22.8066H448.678L461.835 0Z" fill="white"/>
<path d="M442.539 0C439.03 0 435.302 0 431.793 0L418.636 22.8066H429.381L442.539 0Z" fill="white"/>
</svg>
