<svg width="28" height="30" viewBox="0 0 28 30" fill="none" xmlns="http://www.w3.org/2000/svg">
<path d="M21.2937 0.751906C16.3282 -0.192693 11.2925 -0.192693 6.32598 0.751906C4.15373 1.23573 1.42086 3.85449 0.886578 5.96092C-0.00206909 10.0366 -0.00206909 14.1683 0.886578 18.244C1.42086 20.3504 4.15373 22.9692 6.32598 23.453C6.32653 23.4531 6.32707 23.4532 6.32762 23.4533C6.42439 23.4723 6.49493 23.5561 6.49493 23.6548V29.6254C6.49493 29.9238 6.85917 30.0708 7.06652 29.8547L9.90251 26.9441C9.90251 26.9441 12.1624 24.6242 12.5688 24.207C12.6085 24.1662 12.6634 24.1442 12.7202 24.1457C15.5835 24.225 18.4499 23.9938 21.2937 23.4531C23.4659 22.9693 26.1999 20.3505 26.7331 18.2441C27.6228 14.1684 27.6228 10.0367 26.7331 5.96103C26.1998 3.85449 23.467 1.23573 21.2937 0.751906ZM21.3694 18.548C20.9349 19.4704 20.3028 20.2379 19.3909 20.7277C19.1336 20.8659 18.8261 20.9106 18.5357 21C18.2017 20.8986 17.8834 20.8305 17.5879 20.7079C14.5252 19.4372 11.7066 17.7979 9.47387 15.285C8.20421 13.8561 7.21035 12.2428 6.37041 10.5355C5.97205 9.72582 5.63634 8.88446 5.29416 8.04858C4.98204 7.28632 5.44172 6.49882 5.92565 5.92449C6.37973 5.38549 6.96405 4.97298 7.59685 4.66898C8.09076 4.43168 8.57798 4.56848 8.93871 4.98713C9.71853 5.89224 10.4348 6.84364 11.0149 7.89279C11.3715 8.5381 11.2737 9.32691 10.6273 9.76608C10.4701 9.87283 10.327 9.99812 10.1806 10.1187C10.0523 10.2243 9.93147 10.3311 9.84348 10.4741C9.68265 10.7358 9.67497 11.0446 9.77854 11.3292C10.5757 13.5199 11.9193 15.2234 14.1242 16.1409C14.4772 16.2877 14.8314 16.4586 15.2379 16.4112C15.9187 16.3317 16.1391 15.585 16.6161 15.1948C17.0823 14.8136 17.6782 14.8086 18.1804 15.1264C18.6828 15.4443 19.1698 15.7856 19.6538 16.1306C20.129 16.4691 20.602 16.8003 21.0403 17.1863C21.4615 17.5573 21.6067 18.0442 21.3694 18.548ZM17.415 11.4093C17.2249 11.4127 17.2996 11.409 17.3719 11.4069C17.0654 11.3961 16.8988 11.2158 16.8659 10.9225C16.8419 10.7083 16.8229 10.4912 16.7718 10.2827C16.671 9.87217 16.4528 9.4917 16.1076 9.24014C15.9445 9.12132 15.7598 9.03465 15.5663 8.97892C15.3204 8.90793 15.0651 8.92746 14.8198 8.86734C14.5534 8.80217 14.4061 8.58638 14.4479 8.33646C14.486 8.10903 14.7072 7.93152 14.9557 7.94951C16.5089 8.06163 17.6189 8.8646 17.7774 10.6931C17.7885 10.8221 17.8017 10.9584 17.7731 11.0818C17.7266 11.2825 17.5832 11.3869 17.4382 11.4059C17.4501 11.4061 17.4478 11.4071 17.415 11.4093ZM16.4492 7.22729C15.9726 6.99394 15.4572 6.84891 14.9348 6.76246C14.7065 6.72472 14.4758 6.70179 14.2463 6.66986C13.9683 6.63124 13.82 6.45406 13.8331 6.18012C13.8454 5.9234 14.033 5.73875 14.3127 5.75455C15.2321 5.80677 16.1201 6.00546 16.9374 6.43826C18.5995 7.31846 19.5489 8.70782 19.8261 10.563C19.8387 10.6471 19.8588 10.7303 19.8651 10.8147C19.8809 11.0229 19.8907 11.2315 19.9067 11.5061C19.9001 11.5561 19.8966 11.6737 19.8674 11.7845C19.7611 12.1867 19.1514 12.2371 19.0109 11.8311C18.9693 11.7107 18.9631 11.5737 18.9629 11.444C18.9614 10.5955 18.777 9.74787 18.3492 9.00963C17.9093 8.2511 17.2373 7.61325 16.4492 7.22729ZM21.5849 12.9608C21.2638 12.9647 21.1193 12.696 21.0985 12.408C21.0572 11.8379 21.0287 11.2654 20.95 10.7C20.5353 7.71583 18.1557 5.24693 15.1855 4.71714C14.7385 4.63738 14.2809 4.61643 13.8282 4.56892C13.542 4.53886 13.1671 4.52153 13.1037 4.16574C13.0505 3.86744 13.3023 3.62992 13.5863 3.61467C13.6636 3.6105 13.7412 3.61401 13.8188 3.61434C17.6658 3.72218 14.0536 3.62268 13.8291 3.61489C17.8305 3.73151 21.1157 6.38867 21.8203 10.3457C21.9404 11.0205 21.9832 11.7105 22.0366 12.3954C22.059 12.6834 21.8958 12.9571 21.5849 12.9608Z" fill="white"/>
</svg>
