<svg width="31" height="30" viewBox="0 0 31 30" fill="none" xmlns="http://www.w3.org/2000/svg">
<path fill-rule="evenodd" clip-rule="evenodd" d="M26.1219 4.35908C23.3019 1.54926 19.5515 0.0011596 15.556 -0.000488281C7.323 -0.000488281 0.622498 6.66777 0.619186 14.8636C0.618082 17.4836 1.30579 20.0411 2.61296 22.2954L0.493896 29.9983L8.41216 27.9312C10.594 29.1156 13.0503 29.7398 15.55 29.7405H15.5562C23.7884 29.7405 30.4896 23.0717 30.4927 14.8755C30.4944 10.9034 28.9422 7.16873 26.1219 4.35908ZM15.556 27.2301H15.5509C13.3233 27.2292 11.1385 26.6334 9.23215 25.5079L8.77901 25.24L4.08019 26.4667L5.33438 21.9074L5.03909 21.44C3.79631 19.4728 3.14006 17.199 3.14117 14.8645C3.14374 8.05236 8.71314 2.51016 15.561 2.51016C18.877 2.51125 21.9942 3.79807 24.3381 6.13349C26.682 8.46891 27.972 11.5732 27.9709 14.8746C27.968 21.6873 22.399 27.2301 15.556 27.2301ZM22.3658 17.9765C21.9927 17.7904 20.1577 16.8922 19.8155 16.768C19.4737 16.6441 19.2246 16.5824 18.976 16.9541C18.7271 17.3257 18.012 18.1625 17.7941 18.4102C17.5763 18.6581 17.3589 18.6893 16.9856 18.5032C16.6123 18.3174 15.4098 17.925 13.9841 16.6596C12.8747 15.6747 12.1258 14.4584 11.9079 14.0867C11.6905 13.7147 11.9061 13.533 12.0717 13.3287C12.4757 12.8294 12.8803 12.3059 13.0046 12.0582C13.1292 11.8103 13.0668 11.5933 12.9734 11.4075C12.8803 11.2216 12.1339 9.39337 11.8229 8.64944C11.5197 7.92547 11.2123 8.02325 10.9831 8.01189C10.7656 8.00109 10.5167 7.99889 10.2678 7.99889C10.019 7.99889 9.61464 8.09173 9.27244 8.46378C8.93042 8.83565 7.96637 9.73412 7.96637 11.5624C7.96637 13.3906 9.30372 15.1568 9.49027 15.4047C9.67682 15.6526 12.1221 19.4043 15.8659 21.013C16.7563 21.396 17.4514 21.6243 17.9936 21.7955C18.8877 22.0782 19.7011 22.0383 20.3443 21.9427C21.0614 21.836 22.5522 21.0441 22.8635 20.1766C23.1744 19.3089 23.1744 18.5653 23.081 18.4102C22.9879 18.2553 22.7389 18.1625 22.3658 17.9765Z" fill="black"/>
</svg>
