<svg width="134" height="95" viewBox="0 0 134 95" fill="none" xmlns="http://www.w3.org/2000/svg">
<path d="M133.134 47.3414C133.134 22.4591 105.963 2.10086 71.6209 0.404334C70.1114 0.215832 68.6019 0.21582 66.9037 0.21582C65.2055 0.21582 63.6959 0.215832 62.1864 0.404334C27.8446 2.10086 0.484375 22.6476 0.484375 47.3414C0.484375 72.2238 27.6559 92.582 62.1864 94.2785C63.6959 94.467 65.2055 94.4671 66.9037 94.4671C68.6019 94.4671 70.1114 94.467 71.6209 94.2785C105.774 92.7705 133.134 72.2238 133.134 47.3414ZM130.115 45.8334H116.341C115.775 29.4337 106.529 15.296 92.7544 7.19041C114.076 13.9765 129.172 28.6797 130.115 45.8334ZM65.3941 25.4751C65.3941 36.7853 56.1483 45.8334 45.0155 45.8334H39.5434C40.1095 23.5901 51.431 5.4939 65.3941 4.17438V25.4751ZM45.2042 49.0379C56.337 49.2265 65.3941 58.2746 65.3941 69.3962V91.2625C51.2423 89.943 39.9208 71.6583 39.5434 48.8495H45.2042V49.0379ZM68.2245 69.3962C68.2245 58.0861 77.2817 49.0379 88.4145 49.0379H94.2639C93.8865 71.8467 82.3764 90.32 68.0358 91.451V69.3962H68.2245ZM88.7918 45.8334C77.4704 45.8334 68.4132 36.5968 68.4132 25.4751V4.17438C82.565 5.3054 93.8865 23.4016 94.6413 45.8334H88.7918ZM36.5244 45.8334H20.4857H20.297C21.0517 25.8521 35.7696 9.26394 55.3935 4.55138C44.8268 11.3375 37.0905 27.1717 36.5244 45.8334ZM36.5244 49.0379C36.9018 67.1342 43.8834 82.5914 53.884 89.943C35.0149 84.6649 21.0517 68.4537 20.4857 49.0379H36.5244ZM97.4716 49.0379H113.322C112.567 68.2652 98.9812 84.4764 80.3007 89.7545C90.3014 82.4029 97.0943 66.9457 97.4716 49.0379ZM113.133 45.8334H97.4716C96.9056 27.1717 89.3579 11.3375 78.6025 4.55138C98.0377 9.45245 112.567 26.0407 113.133 45.8334ZM40.8643 7.19041C27.0898 15.296 17.844 29.4337 17.2779 45.8334H3.50345C4.4469 28.6797 19.5422 13.9765 40.8643 7.19041ZM3.69212 49.0379H17.4666C18.0327 65.4377 27.2785 79.5753 41.053 87.681C19.5422 80.8949 4.44688 66.1917 3.69212 49.0379ZM92.7544 87.681C106.529 79.5753 115.775 65.4377 116.341 49.0379H130.115C129.172 66.1917 114.076 80.8949 92.7544 87.681Z" fill="white"/>
</svg>
