<svg width="66" height="65" viewBox="0 0 66 65" fill="none" xmlns="http://www.w3.org/2000/svg">
<path d="M17.0833 15.7512C21.2984 17.0823 25.9573 17.7479 31.0599 17.9697V-0.000244141C25.2917 0.887162 20.1892 7.09902 17.0833 15.7512Z" fill="black"/>
<path d="M31.2806 64.999V47.0291C26.178 47.2509 21.5191 47.9165 17.304 49.2476C19.9662 57.8998 25.2906 64.1116 31.2806 64.999Z" fill="black"/>
<path d="M16.4171 46.3641C20.8541 45.033 25.9568 44.1457 31.2812 43.9238V34.8279H14.6423C14.8642 39.0431 15.3079 43.0363 16.4171 46.3641Z" fill="black"/>
<path d="M14.6423 32.1714H31.2812V20.8569C25.9568 20.6351 20.8541 19.9695 16.4171 18.6384C15.3079 22.6318 14.6423 27.2906 14.6423 32.1714Z" fill="black"/>
<path d="M22.1857 1.55249C16.4176 3.54915 11.5369 6.87692 7.76538 11.5358C9.76204 12.8669 11.9806 13.9762 14.4209 14.8636C16.4176 9.31729 19.0798 4.88026 22.1857 1.55249Z" fill="black"/>
<path d="M13.5333 17.5231C10.6492 16.4139 8.20877 15.0828 5.99026 13.7517C2.21879 19.0761 0.000244141 25.288 0.000244141 32.1653H11.5365C11.7584 27.0628 12.424 21.9602 13.5333 17.5231Z" fill="black"/>
<path d="M7.76538 53.4662C11.5369 57.9032 16.6394 61.4529 22.1857 63.4495C18.858 60.3436 16.1957 55.6847 14.4209 50.1384C11.9806 51.0258 9.76204 52.1351 7.76538 53.4662Z" fill="black"/>
<path d="M53.4672 32.1653H65.2253C65.2253 25.288 63.0067 19.0761 59.2353 13.7517C57.0167 15.3047 54.3545 16.6357 51.4705 17.5231C52.8016 22.182 53.4672 27.0628 53.4672 32.1653Z" fill="black"/>
<path d="M11.7587 35.0544H0.222412C0.666115 41.0444 2.88458 46.5907 5.9905 51.2496C8.20901 49.6966 10.6494 48.5873 13.5335 47.4781C12.6461 43.7066 11.9806 39.4915 11.7587 35.0544Z" fill="black"/>
<path d="M51.4705 47.2516C54.3545 48.3608 57.0167 49.6919 59.2353 51.023C62.563 46.3641 64.5598 40.8179 65.0035 34.8279H53.2452C53.2452 39.4868 52.5797 43.4801 51.4705 47.2516Z" fill="black"/>
<path d="M50.5823 35.0544H34.1653V44.1503C39.4897 44.3721 44.3704 45.0377 48.8074 46.3688C49.6948 43.041 50.3605 39.0478 50.5823 35.0544Z" fill="black"/>
<path d="M34.1653 47.0291V64.999C40.1553 64.1116 45.2578 57.8998 48.1419 49.2476C43.9267 47.9165 39.046 47.2509 34.1653 47.0291Z" fill="black"/>
<path d="M42.8171 63.4495C48.5853 61.4529 53.6878 58.1251 57.6811 53.4662C55.6844 52.1351 53.466 51.0258 50.8037 50.1384C48.8071 55.6847 46.1449 60.3436 42.8171 63.4495Z" fill="black"/>
<path d="M57.4605 11.5358C53.689 6.87692 48.5864 3.3273 42.5964 1.55249C45.9242 4.65841 48.5865 9.31729 50.5832 14.8636C53.2454 13.9762 55.4638 12.8669 57.4605 11.5358Z" fill="black"/>
<path d="M34.1653 -0.000244141V17.9697C39.2679 17.7479 43.9267 17.0823 48.1419 15.9731C45.036 7.09903 39.9334 0.887162 34.1653 -0.000244141Z" fill="black"/>
<path d="M48.8074 18.6384C44.3704 19.9695 39.4897 20.8569 34.1653 20.8569V32.1714H50.5823C50.5823 27.2906 49.9167 22.6318 48.8074 18.6384Z" fill="black"/>
</svg>
