<svg width="110" height="110" viewBox="0 0 110 110" fill="none" xmlns="http://www.w3.org/2000/svg">
<path d="M69.0003 42.4444C72.3753 42.4444 75.1114 36.9724 75.1114 30.2222C75.1114 23.4721 72.3753 18 69.0003 18C65.6252 18 62.8892 23.4721 62.8892 30.2222C62.8892 36.9724 65.6252 42.4444 69.0003 42.4444Z" fill="black"/>
<path d="M40.4817 42.4444C43.8568 42.4444 46.5928 36.9724 46.5928 30.2222C46.5928 23.4721 43.8568 18 40.4817 18C37.1066 18 34.3706 23.4721 34.3706 30.2222C34.3706 36.9724 37.1066 42.4444 40.4817 42.4444Z" fill="black"/>
<path d="M90.8302 59.0255C87.5548 58.2977 84.6433 59.0255 84.2794 60.4813C83.9154 61.5731 85.0072 63.0288 86.8269 64.1206C81.3678 77.5863 68.994 86.3208 54.8005 86.3208C40.9709 86.3208 28.5971 77.5863 22.7741 64.4846C24.9577 63.3928 26.0495 61.937 25.6856 60.8452C25.3216 59.0255 22.4102 58.2976 19.1347 59.3894C15.8593 60.1173 13.6756 62.301 14.0395 63.7567C14.4035 64.8485 15.8592 65.5764 18.0429 65.5764C24.2298 81.2257 38.4233 91.052 54.4365 91.052C70.4497 91.052 84.6433 81.2257 90.8302 65.5764C93.0138 65.5764 94.8335 64.8485 95.1975 63.7567C96.2893 61.937 94.1056 59.7534 90.8302 59.0255Z" fill="black"/>
<circle cx="55" cy="55" r="53.5" stroke="black" stroke-width="3"/>
</svg>
