<svg width="208" height="132" viewBox="0 0 208 132" fill="none" xmlns="http://www.w3.org/2000/svg">
<g id="Frame" clip-path="url(#clip0)">
<g id="Group">
<path id="Vector" d="M208 45.5739H179.339V132.205H208V45.5739Z" fill="#EA0F0F"/>
</g>
<g id="Group_2">
<path id="Vector_2" d="M178.11 66.9238H149.449V132H178.11V66.9238Z" fill="#EA0F0F"/>
</g>
<g id="Group_3">
<path id="Vector_3" d="M147.811 103.876H119.15V132H147.811V103.876Z" fill="#EA0F0F"/>
</g>
<g id="Group_4">
<path id="Vector_4" d="M118.126 98.5381H89.4645V132H118.126V98.5381Z" fill="#EA0F0F"/>
</g>
<g id="Group_5">
<path id="Vector_5" d="M88.441 104.902H59.7795V132H88.441V104.902Z" fill="#EA0F0F"/>
</g>
<g id="Group_6">
<path id="Vector_6" d="M58.5513 117.014H29.8898V132H58.5513V117.014Z" fill="#EA0F0F"/>
</g>
<g id="Group_7">
<path id="Vector_7" d="M28.8663 121.325H0.204834V132H28.8663V121.325Z" fill="#EA0F0F"/>
</g>
<g id="Group_8">
<path id="Vector_8" d="M13.9213 83.1415C6.14173 83.1415 0 76.7776 0 69.1819C0 61.5863 6.34646 55.2224 13.9213 55.2224C21.4961 55.2224 27.8425 61.5863 27.8425 69.1819C27.8425 76.7776 21.7008 83.1415 13.9213 83.1415ZM13.9213 57.4805C7.5748 57.4805 2.45669 62.6127 2.45669 68.9766C2.45669 75.3405 7.5748 80.4727 13.9213 80.4727C20.2677 80.4727 25.3858 75.3405 25.3858 68.9766C25.3858 62.6127 20.2677 57.4805 13.9213 57.4805Z" fill="#EA0F0F"/>
</g>
<g id="Group_9">
<path id="Vector_9" d="M6.14171 8.62208C4.70863 8.62208 3.48029 8.21151 2.66139 7.39036C1.84249 6.56921 1.43304 5.54277 1.43304 4.31104C1.43304 3.07932 1.84249 2.05288 2.66139 1.23173C3.48029 0.410575 4.70863 0 6.14171 0C7.57478 0 8.5984 0.410575 9.62202 1.23173C10.4409 2.05288 10.8504 3.07932 10.8504 4.31104C10.8504 5.54277 10.4409 6.56921 9.4173 7.39036C8.5984 8.21151 7.37005 8.62208 6.14171 8.62208ZM6.14171 7.59565C7.16533 7.59565 7.98423 7.18507 8.80312 6.56921C9.4173 5.95334 9.82675 5.13219 9.82675 4.31104C9.82675 3.2846 9.4173 2.46345 8.80312 1.84759C7.98423 1.23173 7.16533 1.02644 6.14171 1.02644C5.11808 1.02644 4.09446 1.23173 3.48029 1.84759C2.86612 2.46345 2.45667 3.2846 2.45667 4.31104C2.45667 5.33748 2.86612 5.95334 3.48029 6.56921C4.09446 7.39036 5.11808 7.59565 6.14171 7.59565Z" fill="#EA0F0F"/>
<path id="Vector_10" d="M16.5827 8.62208C15.3543 8.62208 14.126 8.21151 13.3071 7.39036C12.4882 6.56921 11.874 5.54277 11.874 4.31104C11.874 3.07932 12.2835 2.05288 13.1024 1.23173C14.126 0.410575 15.3543 0 16.5827 0C18.0158 0 19.0394 0.410575 20.063 1.23173C20.8819 2.05288 21.4961 3.07932 21.4961 4.31104C21.4961 5.54277 21.0866 6.56921 20.063 7.39036C19.2441 8.21151 18.0158 8.62208 16.5827 8.62208ZM16.5827 7.59565C17.6063 7.59565 18.4252 7.18507 19.2441 6.56921C19.8583 5.95334 20.2677 5.13219 20.2677 4.31104C20.2677 3.2846 19.8583 2.46345 19.2441 1.84759C18.6299 1.23173 17.811 1.02644 16.5827 1.02644C15.3543 1.02644 14.7402 1.23173 14.126 1.84759C13.3071 2.46345 13.1024 3.2846 13.1024 4.31104C13.1024 5.33748 13.5118 5.95334 14.126 6.56921C14.7402 7.39036 15.5591 7.59565 16.5827 7.59565Z" fill="#EA0F0F"/>
<path id="Vector_11" d="M27.2284 8.62208C25.7953 8.62208 24.7717 8.21151 23.7481 7.39036C22.9292 6.56921 22.5197 5.54277 22.5197 4.31104C22.5197 3.07932 22.9292 2.05288 23.7481 1.23173C24.567 0.410575 25.7953 0 27.2284 0C28.6614 0 29.8898 0.410575 30.7087 1.23173C31.5276 2.05288 32.1418 3.07932 32.1418 4.31104C32.1418 5.54277 31.7323 6.56921 30.7087 7.39036C29.8898 8.21151 28.6614 8.62208 27.2284 8.62208ZM27.2284 7.59565C28.252 7.59565 29.0709 7.18507 29.8898 6.56921C30.504 5.95334 30.9134 5.13219 30.9134 4.31104C30.9134 3.2846 30.504 2.46345 29.8898 1.84759C29.2756 1.23173 28.252 0.821151 27.2284 0.821151C26.2048 0.821151 25.3859 1.23173 24.567 1.84759C23.9528 2.46345 23.5433 3.2846 23.5433 4.31104C23.5433 5.33748 23.9528 5.95334 24.567 6.56921C25.3859 7.39036 26.2048 7.59565 27.2284 7.59565Z" fill="#EA0F0F"/>
<path id="Vector_12" d="M37.8739 8.62208C36.4409 8.62208 35.4173 8.21151 34.3936 7.39036C33.5747 6.56921 33.1653 5.54277 33.1653 4.31104C33.1653 3.07932 33.5747 2.05288 34.3936 1.23173C35.2125 0.410575 36.4409 0 37.8739 0C39.307 0 40.3306 0.410575 41.3543 1.23173C42.1732 2.05288 42.7873 3.07932 42.7873 4.31104C42.7873 5.54277 42.3779 6.56921 41.3543 7.39036C40.3306 8.21151 39.307 8.62208 37.8739 8.62208ZM37.8739 7.59565C38.8976 7.59565 39.7165 7.18507 40.5354 6.56921C41.1495 5.95334 41.559 5.13219 41.559 4.31104C41.559 3.2846 41.1495 2.46345 40.5354 1.84759C39.9212 1.23173 38.8976 0.821151 37.8739 0.821151C36.8503 0.821151 36.0314 1.23173 35.2125 1.84759C34.3936 2.46345 34.1889 3.2846 34.1889 4.31104C34.1889 5.33748 34.5984 5.95334 35.2125 6.56921C36.0314 7.39036 36.8503 7.59565 37.8739 7.59565Z" fill="#EA0F0F"/>
<path id="Vector_13" d="M44.8346 5.95334C45.4488 6.56921 46.0629 6.97978 46.6771 7.18507C47.2913 7.39036 47.9055 7.59565 48.7244 7.59565C49.5433 7.59565 50.3622 7.39036 50.9763 6.97978C51.5905 6.56921 51.7952 6.15863 51.7952 5.74806C51.7952 5.33748 51.5905 4.92691 51.1811 4.72162C50.7716 4.51633 49.9527 4.31104 49.1338 4.31104H48.7244V3.2846H48.9291C48.9291 3.2846 49.1338 3.2846 49.3385 3.2846C49.9527 3.2846 50.5669 3.2846 50.7716 3.07932C50.9763 2.87403 51.1811 2.66874 51.1811 2.25816C51.1811 1.84759 50.9763 1.6423 50.5669 1.23173C50.1574 1.02644 49.748 0.821151 49.1338 0.821151C48.5196 0.821151 48.1102 0.821151 47.496 1.02644C46.8818 1.23173 46.4724 1.43701 45.8582 1.84759L45.244 1.02644C45.8582 0.615863 46.4724 0.205288 47.0866 0C47.7007 0.205288 48.5196 0 49.1338 0C50.1574 0 50.7716 0.205288 51.3858 0.615863C52 1.02644 52.2047 1.6423 52.2047 2.25816C52.2047 2.66874 52.2047 2.87403 52 3.07932C51.7952 3.2846 51.5905 3.48989 51.3858 3.69518C51.7952 3.90047 52.2047 4.10575 52.4094 4.51633C52.6141 4.92691 52.8188 5.33748 52.8188 5.74806C52.8188 6.56921 52.4094 7.18507 51.5905 7.80093C50.7716 8.4168 49.748 8.62208 48.5196 8.62208C47.496 8.62208 46.6771 8.4168 45.8582 8.21151C45.0393 8.00622 44.4251 7.39036 43.811 6.77449L44.8346 5.95334Z" fill="#EA0F0F"/>
<path id="Vector_14" d="M55.0709 6.97979L55.685 6.15864C56.2992 6.56921 57.1181 6.97979 57.5276 7.18507C58.1417 7.39036 58.7559 7.59565 59.1653 7.59565C59.9842 7.59565 60.5984 7.39036 61.0079 6.97979C61.4173 6.56921 61.8268 5.95335 61.8268 5.54277C61.8268 4.92691 61.622 4.51633 61.0079 4.31105C60.3937 3.90047 59.7795 3.69518 58.9606 3.69518C58.5512 3.69518 57.937 3.69518 57.5276 3.90047C57.3228 3.90047 56.9134 4.10576 56.5039 4.51633H55.8898V0.205292H62.4409V1.23173H56.9134V3.07932C57.3228 2.87403 57.7323 2.87403 58.1417 2.66874C58.5512 2.66874 58.9606 2.66874 59.3701 2.66874C60.5984 2.66874 61.4173 2.87403 62.2362 3.48989C63.0551 4.10576 63.2598 4.72162 63.2598 5.54277C63.2598 6.36392 62.8504 7.18507 62.2362 7.59565C61.4173 8.21151 60.5984 8.4168 59.5748 8.4168C58.7559 8.4168 58.1417 8.21151 57.5276 8.00622C56.5039 8.00622 55.8898 7.59565 55.0709 6.97979Z" fill="#EA0F0F"/>
</g>
<g id="Group_10">
<path id="Vector_15" d="M6.55113 25.0451C5.11806 25.0451 4.09444 24.6345 3.07081 23.8134C2.25192 22.9922 1.84247 21.9658 1.84247 20.734C1.84247 19.5023 2.25192 18.4759 3.07081 17.6547C4.09444 16.8336 5.32278 16.423 6.55113 16.423C7.9842 16.423 9.00782 16.8336 10.0314 17.6547C10.8503 18.4759 11.2598 19.5023 11.2598 20.734C11.2598 21.9658 10.8503 22.9922 9.82672 23.8134C9.21255 24.6345 7.9842 25.0451 6.55113 25.0451ZM6.55113 24.0186C7.57475 24.0186 8.39365 23.6081 9.21255 22.9922C9.82672 22.5816 10.2362 21.7605 10.2362 20.734C10.2362 19.9129 9.82672 19.0917 9.21255 18.4759C8.59837 17.86 7.57475 17.4494 6.55113 17.4494C5.52751 17.4494 4.70861 17.86 4.09444 18.4759C3.48026 19.0917 3.07081 19.9129 3.07081 20.9393C3.07081 21.9658 3.48026 22.5816 4.09444 23.1975C4.70861 23.8134 5.52751 24.0186 6.55113 24.0186Z" fill="#EA0F0F"/>
<path id="Vector_16" d="M17.1967 25.0451C15.7636 25.0451 14.74 24.6345 13.7164 23.8134C12.8975 22.9922 12.488 21.9658 12.488 20.734C12.488 19.5023 12.8975 18.4759 13.7164 17.6547C14.74 16.8336 15.7636 16.423 17.1967 16.423C18.6298 16.423 19.6534 16.8336 20.677 17.6547C21.4959 18.4759 22.1101 19.5023 22.1101 20.734C22.1101 21.9658 21.7006 22.9922 20.677 23.8134C19.6534 24.6345 18.6298 25.0451 17.1967 25.0451ZM17.1967 24.0186C18.2203 24.0186 19.0392 23.6081 19.8581 22.9922C20.4723 22.3763 20.8817 21.5552 20.8817 20.734C20.8817 19.7076 20.4723 18.8865 19.8581 18.2706C19.2439 17.86 18.2203 17.4494 17.1967 17.4494C16.1731 17.4494 15.3542 17.86 14.74 18.4759C14.1258 19.0917 13.7164 19.9129 13.7164 20.9393C13.7164 21.9658 14.1258 22.5816 14.74 23.1975C15.3542 23.8134 16.1731 24.0186 17.1967 24.0186Z" fill="#EA0F0F"/>
<path id="Vector_17" d="M23.7479 23.6081L24.3621 22.7869C24.9763 23.1975 25.7952 23.6081 26.2046 23.8134C26.8188 24.0187 27.433 24.2239 27.8424 24.2239C28.6613 24.2239 29.2755 24.0187 29.6849 23.6081C30.0944 23.1975 30.5038 22.5816 30.5038 22.1711C30.5038 21.5552 30.2991 21.1446 29.6849 20.9393C29.0708 20.5288 28.4566 20.3235 27.6377 20.3235C27.2282 20.3235 26.6141 20.3235 26.2046 20.5288C25.7952 20.734 25.3857 20.9393 24.7715 21.1446H24.1574V16.6283H30.7086V17.6547H25.181V19.5023C25.5904 19.297 25.9999 19.297 26.4093 19.0917C26.8188 19.0917 27.2282 19.0917 27.6377 19.0917C28.866 19.0917 29.6849 19.297 30.5038 19.9129C31.3227 20.5288 31.5274 21.1446 31.5274 21.9658C31.5274 22.7869 31.118 23.6081 30.5038 24.0187C29.6849 24.6345 28.866 24.8398 27.8424 24.8398C27.0235 24.8398 26.4093 24.6345 25.7952 24.4292C25.181 24.4292 24.5668 24.0187 23.7479 23.6081Z" fill="#EA0F0F"/>
<path id="Vector_18" d="M40.5353 24.8398V22.7869H33.9841V21.7605L40.5353 16.6283H41.5589V21.7605H42.992V22.7869H41.5589V24.8398H40.5353ZM35.6219 21.9658H40.5353V18.0653L35.6219 21.9658Z" fill="#EA0F0F"/>
</g>
</g>
<defs>
<clipPath id="clip0">
<rect width="208" height="132" fill="white"/>
</clipPath>
</defs>
</svg>
